# xmcd
#
# Track frame offsets:
#	150
#	13838
#	31896
#	49259
#	65910
#	78516
#	94871
#	109182
#	123019
#	133733
#	148141
#
# Disc length: 2134 seconds
#
# Revision: 0
# Processed by: cddbd v1.5.2PL0 Copyright (c) Steve Scherf et al.
# Submitted via: EasyCDDAExtractor 16.0.6.1
#
DISCID=9d08540b
DTITLE=Αλιφραγκή Ανθούλα - Οι ρεμπέτισσες 2 Η μόρτισσα-Ανθ. Αλιφραγκή
DYEAR=1986
DGENRE=Ρεμπέτικη
TTITLE0=Μόρτισσα [Μ. Βαμβακάρη]
TTITLE1=Πες το ναι κι ας είναι ψέμα [Σ. Παγιουμτζή-Κ. Καρίπη]
TTITLE2=Μικρούλα κι ορφανή [Σωτ. Γαβαλά]
TTITLE3=Επισκέπτης [Γ. Λαύκα-Α. Αντιβάχη]
TTITLE4=Σ' ένα τεκέ σκαρώσανε [Β. Τσιτσάνη-Δ. Περδικόπουλου]
TTITLE5=Σκαλοπάτι [Χαρ. Βασιλειάδη-Γ. Λαύκα]
TTITLE6=Η λαδιά [Α. Αθανασίου]
TTITLE7=Φίνα θα την περνάμε [Β. Τσιτσάνη]
TTITLE8=Αλανιάρης [Μ. Βαμβακάρη]
TTITLE9=Προξενεύουν τον Σταμάτη [Σ. Παγιουμτζή]
TTITLE10=Ο Νώντας [Δ. Γκόγκου Μπαγιαντέρα]
EXTD=
EXTT0=
EXTT1=
EXTT2=
EXTT3=
EXTT4=
EXTT5=
EXTT6=
EXTT7=
EXTT8=
EXTT9=
EXTT10=
PLAYORDER=
